<svg width="0" height="0" class="hidden"><symbol fill="none" xmlns="http://www.w3.org/2000/svg" viewBox="0 0 21 19" id="heart"><path d="M20.24 5.895c0-3-2.433-5.432-5.433-5.432a5.422 5.422 0 00-4.414 2.273A5.422 5.422 0 005.979.463c-3 0-5.432 2.431-5.432 5.432 0 .425.054.837.146 1.234.754 4.687 5.965 9.631 9.7 10.989 3.734-1.358 8.946-6.302 9.699-10.988a5.37 5.37 0 00.147-1.235z" fill="#DD2E44"/></symbol><symbol fill="none" xmlns="http://www.w3.org/2000/svg" viewBox="0 0 19 19" id="nervous-laugh"><path d="M18.276 9.464a8.828 8.828 0 11-17.655 0 8.828 8.828 0 0117.655 0z" fill="#FFCC4D"/><path d="M14.577 9.365c-.03-.066-.735-1.617-2.186-1.617-1.45 0-2.156 1.55-2.186 1.617a.246.246 0 00.37.297c.006-.005.62-.443 1.816-.443 1.19 0 1.802.432 1.816.442a.245.245 0 00.37-.296zm-5.885 0c-.03-.066-.735-1.617-2.186-1.617-1.45 0-2.157 1.55-2.186 1.617a.245.245 0 00.37.297c.006-.005.619-.443 1.816-.443 1.19 0 1.802.432 1.815.442a.244.244 0 00.37-.296zm.756 2.061c-1.776 0-2.955-.207-4.413-.49-.333-.065-.981 0-.981.98 0 1.962 2.253 4.414 5.394 4.414s5.395-2.452 5.395-4.413c0-.981-.648-1.046-.98-.981-1.459.283-2.638.49-4.415.49z" fill="#664500"/><path d="M5.035 11.916s1.471.49 4.414.49c2.942 0 4.414-.49 4.414-.49s-.981 1.962-4.414 1.962-4.414-1.962-4.414-1.962z" fill="#B3B9C9"/><path d="M17.786 6.032a2.452 2.452 0 11-4.905 0c0-1.355 1.962-4.905 2.453-4.905.49 0 2.452 3.55 2.452 4.905z" fill="#5DADEC"/></symbol><symbol fill="none" xmlns="http://www.w3.org/2000/svg" viewBox="0 0 18 20" id="ok"><path d="M17.255 9.982c0-.27-.065-.523-.172-.753-.72-2.319-4.085-2.15-8.872-2.263-.8-.018-.343-.963-.062-3.038.183-1.35-.687-3.422-2.15-3.422-2.411 0-.091 1.903-2.223 6.606C2.636 9.626.09 8.218.09 10.742v5.747c0 .982.096 1.927 1.478 2.082 1.34.151 1.039 1.106 2.971 1.106h9.674A1.79 1.79 0 0016 17.89a1.77 1.77 0 00-.374-1.082c.546-.306.921-.884.921-1.554 0-.408-.142-.78-.373-1.08.549-.306.925-.885.925-1.556a1.78 1.78 0 00-.515-1.252c.406-.328.67-.823.67-1.384z" fill="#FFDB5E"/><path d="M10.856 11.769h4.612c.628 0 1.216-.336 1.537-.876a.47.47 0 00-.807-.478.851.851 0 01-.73.416h-4.723a.85.85 0 010-1.698H13.9a.47.47 0 000-.938h-3.157c-.985 0-1.786.802-1.786 1.787 0 .55.254 1.036.646 1.364a1.78 1.78 0 00-.536 1.272c0 .551.257 1.039.65 1.367a1.779 1.779 0 00.225 2.723 1.772 1.772 0 00-.457 1.181c0 .986.802 1.787 1.787 1.787h2.94c.627 0 1.216-.335 1.537-.875a.47.47 0 00-.806-.479.855.855 0 01-.731.416h-2.94a.85.85 0 010-1.697h3.488c.627 0 1.217-.336 1.537-.876a.469.469 0 10-.806-.479.843.843 0 01-.731.417h-3.787a.85.85 0 010-1.698h4.338c.627 0 1.216-.335 1.537-.875a.469.469 0 00-.806-.48.843.843 0 01-.731.417h-4.456a.85.85 0 010-1.698z" fill="#EE9547"/></symbol><symbol fill="none" xmlns="http://www.w3.org/2000/svg" viewBox="0 0 18 19" id="smile"><path d="M8.834 18.118a8.828 8.828 0 100-17.655 8.828 8.828 0 000 17.655z" fill="#FFCC4D"/><path d="M8.834 10.761c-1.777 0-2.956-.206-4.414-.49-.333-.064-.981 0-.981.981 0 1.962 2.253 4.414 5.395 4.414 3.14 0 5.394-2.452 5.394-4.414 0-.98-.648-1.046-.98-.98-1.459.283-2.638.49-4.414.49z" fill="#664500"/><path d="M4.42 11.252s1.471.49 4.414.49c2.942 0 4.414-.49 4.414-.49s-.981 1.962-4.414 1.962-4.414-1.962-4.414-1.962z" fill="#fff"/><path d="M11.776 8.8c.677 0 1.226-.768 1.226-1.716s-.549-1.717-1.226-1.717c-.677 0-1.226.769-1.226 1.717 0 .948.55 1.716 1.226 1.716zm-5.886 0c.678 0 1.227-.768 1.227-1.716s-.55-1.717-1.226-1.717c-.678 0-1.226.769-1.226 1.717 0 .948.548 1.716 1.226 1.716z" fill="#664500"/></symbol></svg>