<svg width="19" height="19" fill="none" xmlns="http://www.w3.org/2000/svg"><path d="M18.276 9.464a8.828 8.828 0 11-17.655 0 8.828 8.828 0 0117.655 0z" fill="#FFCC4D"/><path d="M14.577 9.365c-.03-.066-.735-1.617-2.186-1.617-1.45 0-2.156 1.55-2.186 1.617a.246.246 0 00.37.297c.006-.005.62-.443 1.816-.443 1.19 0 1.802.432 1.816.442a.245.245 0 00.37-.296zm-5.885 0c-.03-.066-.735-1.617-2.186-1.617-1.45 0-2.157 1.55-2.186 1.617a.245.245 0 00.37.297c.006-.005.619-.443 1.816-.443 1.19 0 1.802.432 1.815.442a.244.244 0 00.37-.296zm.756 2.061c-1.776 0-2.955-.207-4.413-.49-.333-.065-.981 0-.981.98 0 1.962 2.253 4.414 5.394 4.414s5.395-2.452 5.395-4.413c0-.981-.648-1.046-.98-.981-1.459.283-2.638.49-4.415.49z" fill="#664500"/><path d="M5.035 11.916s1.471.49 4.414.49c2.942 0 4.414-.49 4.414-.49s-.981 1.962-4.414 1.962-4.414-1.962-4.414-1.962z" fill="#B3B9C9"/><path d="M17.786 6.032a2.452 2.452 0 11-4.905 0c0-1.355 1.962-4.905 2.453-4.905.49 0 2.452 3.55 2.452 4.905z" fill="#5DADEC"/></svg>