<svg width="18" height="20" fill="none" xmlns="http://www.w3.org/2000/svg"><path d="M17.255 9.982c0-.27-.065-.523-.172-.753-.72-2.319-4.085-2.15-8.872-2.263-.8-.018-.343-.963-.062-3.038.183-1.35-.687-3.422-2.15-3.422-2.411 0-.091 1.903-2.223 6.606C2.636 9.626.09 8.218.09 10.742v5.747c0 .982.096 1.927 1.478 2.082 1.34.151 1.039 1.106 2.971 1.106h9.674A1.79 1.79 0 0016 17.89a1.77 1.77 0 00-.374-1.082c.546-.306.921-.884.921-1.554 0-.408-.142-.78-.373-1.08.549-.306.925-.885.925-1.556a1.78 1.78 0 00-.515-1.252c.406-.328.67-.823.67-1.384z" fill="#FFDB5E"/><path d="M10.856 11.769h4.612c.628 0 1.216-.336 1.537-.876a.47.47 0 00-.807-.478.851.851 0 01-.73.416h-4.723a.85.85 0 010-1.698H13.9a.47.47 0 000-.938h-3.157c-.985 0-1.786.802-1.786 1.787 0 .55.254 1.036.646 1.364a1.78 1.78 0 00-.536 1.272c0 .551.257 1.039.65 1.367a1.779 1.779 0 00.225 2.723 1.772 1.772 0 00-.457 1.181c0 .986.802 1.787 1.787 1.787h2.94c.627 0 1.216-.335 1.537-.875a.47.47 0 00-.806-.479.855.855 0 01-.731.416h-2.94a.85.85 0 010-1.697h3.488c.627 0 1.217-.336 1.537-.876a.469.469 0 10-.806-.479.843.843 0 01-.731.417h-3.787a.85.85 0 010-1.698h4.338c.627 0 1.216-.335 1.537-.875a.469.469 0 00-.806-.48.843.843 0 01-.731.417h-4.456a.85.85 0 010-1.698z" fill="#EE9547"/></svg>