<svg width="18" height="19" fill="none" xmlns="http://www.w3.org/2000/svg"><path d="M8.834 18.118a8.828 8.828 0 100-17.655 8.828 8.828 0 000 17.655z" fill="#FFCC4D"/><path d="M8.834 10.761c-1.777 0-2.956-.206-4.414-.49-.333-.064-.981 0-.981.981 0 1.962 2.253 4.414 5.395 4.414 3.14 0 5.394-2.452 5.394-4.414 0-.98-.648-1.046-.98-.98-1.459.283-2.638.49-4.414.49z" fill="#664500"/><path d="M4.42 11.252s1.471.49 4.414.49c2.942 0 4.414-.49 4.414-.49s-.981 1.962-4.414 1.962-4.414-1.962-4.414-1.962z" fill="#fff"/><path d="M11.776 8.8c.677 0 1.226-.768 1.226-1.716s-.549-1.717-1.226-1.717c-.677 0-1.226.769-1.226 1.717 0 .948.55 1.716 1.226 1.716zm-5.886 0c.678 0 1.227-.768 1.227-1.716s-.55-1.717-1.226-1.717c-.678 0-1.226.769-1.226 1.717 0 .948.548 1.716 1.226 1.716z" fill="#664500"/></svg>