<svg width="0" height="0" class="hidden">
  <symbol fill="none" xmlns="http://www.w3.org/2000/svg" viewBox="0 0 21 19" id="heart">
    <path d="M20.2394 5.89544C20.2394 2.895 17.8071 0.462708 14.8072 0.462708C12.986 0.462708 11.379 1.36174 10.393 2.73589C9.40697 1.36174 7.79994 0.462708 5.9793 0.462708C2.97886 0.462708 0.54657 2.89444 0.54657 5.89544C0.54657 6.32046 0.600523 6.73226 0.693014 7.1292C1.44725 11.816 6.65812 16.7604 10.393 18.118C14.1273 16.7604 19.3387 11.816 20.0919 7.12975C20.1854 6.73281 20.2394 6.32101 20.2394 5.89544V5.89544Z" fill="#DD2E44"></path>
  </symbol>
  <symbol fill="none" xmlns="http://www.w3.org/2000/svg" viewBox="0 0 19 19" id="nervous-laugh">
    <path d="M18.2764 9.4643C18.2764 14.3396 14.3241 18.2919 9.44876 18.2919C4.57395 18.2919 0.621124 14.3396 0.621124 9.4643C0.621124 4.58948 4.57395 0.636658 9.44876 0.636658C14.3241 0.636658 18.2764 4.58948 18.2764 9.4643Z" fill="#FFCC4D"></path>
    <path d="M14.5768 9.36492C14.5474 9.29871 13.8416 7.74799 12.391 7.74799C10.9408 7.74799 10.2346 9.29871 10.2052 9.36492C10.16 9.46643 10.1895 9.58512 10.2763 9.65476C10.3621 9.7244 10.4852 9.72685 10.5754 9.66162C10.5813 9.65721 11.1943 9.21926 12.391 9.21926C13.5807 9.21926 14.1928 9.65132 14.2065 9.66113C14.2497 9.6935 14.3017 9.70968 14.3527 9.70968C14.4066 9.70968 14.4611 9.69154 14.5057 9.65623C14.5925 9.58659 14.6224 9.46692 14.5768 9.36492V9.36492ZM8.6917 9.36492C8.66228 9.29871 7.95655 7.74799 6.50588 7.74799C5.05569 7.74799 4.34948 9.29871 4.32006 9.36492C4.27494 9.46643 4.30436 9.58512 4.39068 9.65476C4.47699 9.7244 4.60009 9.72685 4.68984 9.66162C4.69621 9.65721 5.30875 9.21926 6.50588 9.21926C7.69565 9.21926 8.3077 9.65132 8.32143 9.66113C8.36459 9.6935 8.41657 9.70968 8.46758 9.70968C8.52152 9.70968 8.57596 9.69154 8.62059 9.65623C8.70788 9.58659 8.73682 9.46692 8.6917 9.36492V9.36492ZM9.44843 11.4262C7.67162 11.4262 6.49264 11.2192 5.03461 10.9357C4.70161 10.8715 4.05376 10.9357 4.05376 11.9166C4.05376 13.8783 6.30726 16.3304 9.44843 16.3304C12.5891 16.3304 14.8431 13.8783 14.8431 11.9166C14.8431 10.9357 14.1952 10.871 13.8622 10.9357C12.4042 11.2192 11.2252 11.4262 9.44843 11.4262Z" fill="#664500"></path>
    <path d="M5.03494 11.9165C5.03494 11.9165 6.50622 12.4069 9.44876 12.4069C12.3913 12.4069 13.8626 11.9165 13.8626 11.9165C13.8626 11.9165 12.8817 13.8782 9.44876 13.8782C6.01579 13.8782 5.03494 11.9165 5.03494 11.9165Z" fill="#B3B9C9"></path>
    <path d="M17.7856 6.0315C17.7856 7.38605 16.6881 8.48362 15.3335 8.48362C13.9789 8.48362 12.8814 7.38605 12.8814 6.0315C12.8814 4.67695 14.8431 1.12726 15.3335 1.12726C15.8239 1.12726 17.7856 4.67695 17.7856 6.0315Z" fill="#5DADEC"></path>
  </symbol>
  <symbol fill="none" xmlns="http://www.w3.org/2000/svg" viewBox="0 0 18 20" id="ok">
    <path d="M17.2547 9.98202C17.2547 9.71236 17.1903 9.45932 17.0826 9.22933C16.3637 6.91017 12.998 7.07958 8.21067 6.96646C7.41027 6.9477 7.8681 6.00256 8.14902 3.92785C8.33183 2.57849 7.46174 0.50647 5.99926 0.50647C3.58789 0.50647 5.90759 2.40855 3.77552 7.11228C2.63631 9.62551 0.0898438 8.21772 0.0898438 10.7422V16.4887C0.0898438 17.4713 0.186342 18.4159 1.5684 18.5714C2.90812 18.722 2.60683 19.6768 4.53946 19.6768H14.2128C15.1982 19.6768 15.9997 18.8748 15.9997 17.8895C15.9997 17.481 15.8565 17.1089 15.6255 16.8076C16.1723 16.5015 16.5475 15.9236 16.5475 15.2535C16.5475 14.846 16.4049 14.474 16.1744 14.1732C16.7228 13.8677 17.0992 13.2892 17.0992 12.618C17.0992 12.1307 16.9019 11.689 16.584 11.3657C16.9898 11.0381 17.2547 10.5428 17.2547 9.98202Z" fill="#FFDB5E"></path>
    <path d="M10.8558 11.7688H15.4684C16.0957 11.7688 16.6843 11.4332 17.0049 10.8933C17.1368 10.6708 17.0633 10.3829 16.8403 10.2505C16.6178 10.1181 16.33 10.1926 16.1975 10.4151C16.0458 10.6719 15.7654 10.8306 15.4679 10.8306H10.7449C10.2769 10.8306 9.89623 10.45 9.89623 9.98195C9.89623 9.51393 10.2769 9.1333 10.7449 9.1333H13.9009C14.1598 9.1333 14.37 8.92315 14.37 8.66422C14.37 8.40528 14.1598 8.19513 13.9009 8.19513H10.7443C9.75899 8.19513 8.95752 8.9966 8.95752 9.98195C8.95752 10.5314 9.21217 11.0177 9.60352 11.3458C9.27382 11.6701 9.06849 12.1204 9.06849 12.6179C9.06849 13.1691 9.32475 13.6569 9.71824 13.9845C9.39069 14.3083 9.18751 14.757 9.18751 15.2534C9.18751 15.8538 9.48718 16.3835 9.94287 16.7078C9.66195 17.0236 9.48611 17.4348 9.48611 17.8894C9.48611 18.8748 10.2876 19.6762 11.2729 19.6762H14.2129C14.8401 19.6762 15.4293 19.3412 15.7499 18.8013C15.8823 18.5788 15.8089 18.2909 15.5864 18.1585C15.3634 18.0272 15.0755 18.0996 14.9436 18.322C14.7908 18.5788 14.5104 18.7381 14.2129 18.7381H11.2729C10.8049 18.7381 10.4243 18.3574 10.4243 17.8894C10.4243 17.4214 10.8049 17.0408 11.2729 17.0408H14.7608C15.388 17.0408 15.9777 16.7052 16.2978 16.1653C16.4302 15.9423 16.3568 15.6544 16.1343 15.5225C15.9097 15.388 15.6228 15.4636 15.4915 15.686C15.3366 15.9471 15.0632 16.1026 14.7608 16.1026H10.9743C10.5063 16.1026 10.1257 15.7214 10.1257 15.2534C10.1257 14.7854 10.5063 14.4048 10.9743 14.4048H15.3119C15.9391 14.4048 16.5283 14.0697 16.8489 13.5298C16.9813 13.3074 16.9079 13.0195 16.6854 12.8871C16.4618 12.7552 16.1745 12.8281 16.0426 13.0506C15.8877 13.3111 15.6143 13.4666 15.3119 13.4666H10.8558C10.3878 13.4666 10.0072 13.086 10.0072 12.6179C10.0072 12.1499 10.3873 11.7688 10.8558 11.7688Z" fill="#EE9547"></path>
  </symbol>
  <symbol fill="none" xmlns="http://www.w3.org/2000/svg" viewBox="0 0 18 19" id="smile">
    <path d="M8.83387 18.118C13.7092 18.118 17.6615 14.1657 17.6615 9.29035C17.6615 4.41498 13.7092 0.462708 8.83387 0.462708C3.95849 0.462708 0.00622559 4.41498 0.00622559 9.29035C0.00622559 14.1657 3.95849 18.118 8.83387 18.118Z" fill="#FFCC4D"></path>
    <path d="M8.83351 10.7615C7.0567 10.7615 5.87772 10.5546 4.41969 10.2711C4.08669 10.2069 3.43884 10.2711 3.43884 11.252C3.43884 13.2137 5.69234 15.6658 8.83351 15.6658C11.9742 15.6658 14.2282 13.2137 14.2282 11.252C14.2282 10.2711 13.5803 10.2064 13.2473 10.2711C11.7893 10.5546 10.6103 10.7615 8.83351 10.7615Z" fill="#664500"></path>
    <path d="M4.42004 11.252C4.42004 11.252 5.89132 11.7424 8.83386 11.7424C11.7764 11.7424 13.2477 11.252 13.2477 11.252C13.2477 11.252 12.2668 13.2137 8.83386 13.2137C5.40089 13.2137 4.42004 11.252 4.42004 11.252Z" fill="white"></path>
    <path d="M11.7762 8.8001C12.4534 8.8001 13.0023 8.0316 13.0023 7.08361C13.0023 6.13562 12.4534 5.36713 11.7762 5.36713C11.0991 5.36713 10.5502 6.13562 10.5502 7.08361C10.5502 8.0316 11.0991 8.8001 11.7762 8.8001Z" fill="#664500"></path>
    <path d="M5.89061 8.8001C6.56775 8.8001 7.11667 8.0316 7.11667 7.08361C7.11667 6.13562 6.56775 5.36713 5.89061 5.36713C5.21348 5.36713 4.66455 6.13562 4.66455 7.08361C4.66455 8.0316 5.21348 8.8001 5.89061 8.8001Z" fill="#664500"></path>
  </symbol>
</svg>